<?xml version="1.0" encoding="UTF-8" standalone="no"?>
<!-- Created with Inkscape (http://www.inkscape.org/) -->

<svg
   width="210mm"
   height="297mm"
   viewBox="0 0 210 297"
   version="1.1"
   id="svg5"
   xml:space="preserve"
   sodipodi:docname="praisedwhite.svg"
   inkscape:version="1.2.1 (9c6d41e410, 2022-07-14)"
   xmlns:inkscape="http://www.inkscape.org/namespaces/inkscape"
   xmlns:sodipodi="http://sodipodi.sourceforge.net/DTD/sodipodi-0.dtd"
   xmlns="http://www.w3.org/2000/svg"
   xmlns:svg="http://www.w3.org/2000/svg"><sodipodi:namedview
     id="namedview7"
     pagecolor="#ffffff"
     bordercolor="#000000"
     borderopacity="0.25"
     inkscape:showpageshadow="2"
     inkscape:pageopacity="0.0"
     inkscape:pagecheckerboard="0"
     inkscape:deskcolor="#d1d1d1"
     inkscape:document-units="mm"
     showgrid="false"
     inkscape:zoom="1.0985947"
     inkscape:cx="299.92861"
     inkscape:cy="594.39571"
     inkscape:window-width="1920"
     inkscape:window-height="1027"
     inkscape:window-x="1072"
     inkscape:window-y="332"
     inkscape:window-maximized="1"
     inkscape:current-layer="layer1" /><defs
     id="defs2"><inkscape:path-effect
       effect="bend_path"
       id="path-effect1273"
       is_visible="true"
       lpeversion="1"
       bendpath="m 87.684241,159.28715 c 107.744879,-103.328146 178.675589,-61.686914 237.291529,0"
       prop_scale="1"
       scale_y_rel="false"
       vertical="false"
       hide_knot="false"
       bendpath-nodetypes="cc" /><rect
       x="83.674059"
       y="130.01661"
       width="274.19346"
       height="131.30391"
       id="rect1254" /><inkscape:path-effect
       effect="bend_path"
       id="path-effect1154"
       is_visible="true"
       lpeversion="1"
       bendpath="m 34.75852,51.247327 c 20.244401,-11.776585 28.667899,-4.836739 38.419674,0"
       prop_scale="1"
       scale_y_rel="false"
       vertical="false"
       hide_knot="false"
       bendpath-nodetypes="cc" /><inkscape:path-effect
       effect="bend_path"
       id="path-effect1273-0"
       is_visible="true"
       lpeversion="1"
       bendpath="m 87.684241,159.28715 c 107.744879,-103.328146 178.675589,-61.686914 237.291529,0"
       prop_scale="1"
       scale_y_rel="false"
       vertical="false"
       hide_knot="false"
       bendpath-nodetypes="cc" /></defs><g
     inkscape:label="Layer 1"
     inkscape:groupmode="layer"
     id="layer1"><g
       inkscape:label="Layer 1"
       id="layer1-4"
       transform="translate(4.4898772,15.884613)"
       style="fill:#000000;fill-opacity:1"><g
         aria-label="PRAISED"
         transform="matrix(0.32674142,0,0,0.35961396,35.943243,51.205214)"
         id="text1252"
         style="font-weight:bold;font-size:53.3333px;font-family:Tahoma;-inkscape-font-specification:'Tahoma Bold';white-space:pre;shape-inside:url(#rect1254);fill:#000000;fill-opacity:1;stroke:#000000"
         inkscape:path-effect="#path-effect1273"
         class="UnoptimicedTransforms" /></g><g
       inkscape:label="Layer 1"
       id="layer1-4-1"
       transform="translate(4.9283284,58.322002)"
       style="fill:#ffffff;fill-opacity:1"
       class="UnoptimicedTransforms"><g
         aria-label="PRAISED"
         transform="matrix(0.32674142,0,0,0.35961396,35.943243,51.205214)"
         id="text1252-9"
         style="font-weight:bold;font-size:53.3333px;font-family:Tahoma;-inkscape-font-specification:'Tahoma Bold';white-space:pre;shape-inside:url(#rect1254);fill:#ffffff;fill-opacity:1;stroke:#000000"
         inkscape:path-effect="#path-effect1273-0"
         class="UnoptimicedTransforms"><path
           d="m 109.26467,130.81487 c 1.12199,1.41959 1.92189,2.98272 2.41474,4.6804 0.49287,1.69775 0.59775,3.36417 0.32244,4.99997 -0.16457,1.00826 -0.41863,2.02593 -0.7611,3.05418 -0.3271,1.01557 -0.78043,2.02768 -1.35949,3.03904 -0.57908,1.01139 -1.28396,2.02214 -2.11469,3.03583 -0.81578,1.00088 -1.81943,2.02316 -3.0113,3.07414 -1.45991,1.28732 -2.91061,2.58702 -4.35247,3.89757 l 8.56054,9.40086 c -2.66623,2.41451 -5.31219,4.87143 -7.94047,7.36014 L 74.177916,145.37818 c 4.351384,-4.22613 8.831914,-8.3976 13.451188,-12.47522 2.061777,-1.82001 4.001621,-3.21065 5.789759,-4.1763 1.793963,-0.99315 3.607305,-1.65947 5.425621,-1.9991 2.005606,-0.38034 3.904486,-0.22774 5.684926,0.44607 1.77115,0.6608 3.34294,1.87962 4.73526,3.64124 z m -9.0599,7.74335 c -0.712193,-0.83478 -1.558534,-1.34906 -2.543275,-1.53741 -0.995725,-0.2015 -1.923848,-0.12596 -2.780582,0.22634 -1.098607,0.42413 -2.050021,0.95818 -2.851515,1.59797 -0.79524,0.61126 -1.844991,1.49895 -3.126696,2.65957 -0.409824,0.37111 -0.81864,0.74295 -1.226453,1.1155 l 7.839833,8.60941 c 0.194643,-0.17727 0.389475,-0.35436 0.584496,-0.53126 0.795243,-0.72136 1.542316,-1.4048 2.241328,-2.05215 0.698989,-0.64733 1.280491,-1.24332 1.744144,-1.79095 0.399,-0.46743 0.77031,-1.01284 1.11548,-1.63693 0.34905,-0.65061 0.56083,-1.21355 0.63343,-1.69046 0.1646,-0.9934 0.12443,-1.8412 -0.12606,-2.54383 -0.23476,-0.7154 -0.73567,-1.52506 -1.5041,-2.42577 z"
           id="path1258-6"
           inkscape:original-d="m 117.52797,152.13872 q 0,2.70834 -0.85937,5.15625 -0.85937,2.44792 -2.47396,4.08854 -0.98958,1.01562 -2.1875,1.875 -1.17187,0.85937 -2.60416,1.45833 -1.43229,0.59896 -3.125,0.9375 -1.66666,0.33854 -3.75,0.33854 h -5.10416 v 12.68229 h -9.739578 v -38.77602 h 15.052078 q 3.35937,0 5.78124,0.625 2.44792,0.59896 4.42708,1.92708 2.1875,1.45833 3.38542,3.90625 1.19791,2.42187 1.19791,5.78124 z m -9.99999,0.23438 q 0,-1.64063 -0.78125,-2.8125 -0.78125,-1.19792 -1.875,-1.64062 -1.38021,-0.59896 -2.65625,-0.67709 -1.25,-0.10416 -3.411453,-0.10416 H 97.42382 v 11.61457 h 0.677083 q 1.380207,0 2.604167,-0.026 1.22396,-0.026 2.13541,-0.18229 0.78125,-0.13021 1.64063,-0.49479 0.88541,-0.39063 1.35416,-0.85938 0.98959,-0.96354 1.32813,-2.0052 0.36458,-1.04167 0.36458,-2.8125 z"
           style="fill:#ffffff;fill-opacity:1" /><path
           d="m 162.24524,128.15286 c -3.68644,1.78346 -7.31846,3.72915 -10.90078,5.8178 -5.63479,-2.18544 -11.48415,-4.10848 -17.50234,-5.79572 -1.09922,0.72945 -2.1928,1.46931 -3.28087,2.21909 l 8.05239,11.70862 c -2.83034,1.96197 -5.63137,4.00367 -8.40566,6.11464 l -23.40835,-30.97927 c 5.18676,-3.89555 10.53622,-7.63435 16.05907,-11.17276 2.28572,-1.46443 4.38343,-2.5906 6.25718,-3.39164 1.86613,-0.81642 3.76246,-1.27751 5.66485,-1.38162 1.9583,-0.0956 3.71309,0.22446 5.25604,0.9428 1.53708,0.70423 2.78403,1.98957 3.76963,3.83889 1.39121,2.61038 1.81188,5.11455 1.33559,7.48353 -0.4857,2.3592 -1.56251,4.63773 -3.21123,6.87787 7.0629,2.19351 13.86008,4.75079 20.31448,7.71777 z m -28.30332,-15.04108 c -0.50522,-0.82807 -1.13412,-1.41823 -1.89254,-1.76638 -0.74891,-0.37364 -1.67635,-0.4446 -2.77841,-0.20422 -0.76759,0.17409 -1.55657,0.47811 -2.36309,0.91281 -0.80522,0.434 -1.781,1.0242 -2.91305,1.77284 -1.10668,0.73186 -2.20664,1.4723 -3.29996,2.22094 l 5.91393,8.59918 c 0.89569,-0.61558 1.79544,-1.22497 2.6993,-1.82791 1.31872,-0.87968 2.39731,-1.67362 3.23761,-2.3984 0.84702,-0.74946 1.4574,-1.55334 1.8316,-2.4196 0.36696,-0.80033 0.5253,-1.57873 0.47039,-2.33738 -0.0373,-0.7688 -0.33771,-1.62079 -0.90578,-2.55188 z"
           id="path1260-7"
           inkscape:original-d="m 158.59566,178.67517 h -11.87499 l -10.80729,-14.21875 h -3.48958 v 14.21875 h -9.68749 v -38.77602 h 15.59894 q 3.22917,0 5.625,0.41666 2.39583,0.39063 4.42708,1.66667 2.08333,1.32812 3.30729,3.38541 1.22396,2.03125 1.22396,5.18229 0,4.45313 -2.00521,7.23958 -2.00521,2.76042 -5.36458,4.40104 z m -15.67707,-26.90103 q 0,-1.45833 -0.57292,-2.5 -0.54688,-1.06771 -1.84896,-1.64062 -0.91146,-0.39063 -2.03125,-0.49479 -1.11979,-0.10417 -2.78645,-0.10417 h -3.25521 v 10.4427 h 2.78646 q 2.03125,0 3.43749,-0.23437 1.4323,-0.26042 2.42188,-1.06771 0.9375,-0.72917 1.38021,-1.74479 0.46875,-1.01563 0.46875,-2.65625 z"
           style="fill:#ffffff;fill-opacity:1" /><path
           d="m 161.03456,128.74535 c -1.1767,-9.39058 -1.86448,-18.92877 -1.99541,-28.62207 -0.0517,-4.287665 0.0164,-8.602 0.21448,-12.936997 4.33249,-1.692277 8.76876,-3.209019 13.29767,-4.524145 9.20408,10.786582 17.12293,22.279912 23.36219,34.369522 -3.19112,0.50939 -6.38488,1.19582 -9.57196,2.03738 -1.43937,-2.34855 -2.93439,-4.67387 -4.48231,-6.97516 -4.14281,1.18757 -8.25038,2.60593 -12.30594,4.21571 0.17,2.77275 0.3876,5.53443 0.65034,8.28359 -0.21405,0.0891 -0.428,0.17867 -0.64183,0.26882 -2.87535,1.19507 -5.71705,2.49239 -8.52723,3.88335 z m 16.59374,-22.73092 c -2.66462,-3.64217 -5.46244,-7.218763 -8.38164,-10.726316 -0.15477,4.559769 -0.16733,9.099996 -0.0484,13.614546 2.78258,-1.05354 5.59412,-2.01988 8.43001,-2.88823 z"
           id="path1262-7"
           inkscape:original-d="m 157.29358,178.67517 13.09895,-38.77602 h 10.62499 l 13.09895,38.77602 h -10.02603 l -2.42188,-7.91667 h -12.18749 l -2.42187,7.91667 z m 22.23957,-14.94791 -3.95833,-12.78645 -3.95833,12.78645 z"
           style="fill:#ffffff;fill-opacity:1" /><path
           d="m 217.99995,116.15879 c -6.57817,-0.56362 -13.27911,-0.36173 -19.90124,0.54974 l -0.92805,-6.7071 c 1.89663,-0.2616 3.79999,-0.46867 5.70624,-0.62015 l -1.99697,-25.157656 c -2.39765,0.190154 -4.78827,0.450821 -7.16802,0.780938 l -0.92805,-6.707106 c 9.40435,-1.306071 18.97685,-1.580472 28.51593,-0.767281 l -0.5762,6.745091 c -2.40738,-0.205357 -4.81825,-0.337283 -7.22879,-0.396839 l -0.6174,25.223673 c 1.90466,0.0461 3.80552,0.14958 5.69875,0.3116 z"
           id="path1264-5"
           inkscape:original-d="m 217.29354,178.67517 h -20.8854 v -6.77083 h 5.57291 v -25.23436 h -5.57291 v -6.77083 h 20.8854 v 6.77083 h -5.57291 v 25.23436 h 5.57291 z"
           style="fill:#ffffff;fill-opacity:1" /><path
           d="m 235.06818,120.08862 c -2.74014,-0.79845 -5.07981,-1.64771 -7.08591,-2.64372 -1.9618,-0.97873 -3.79693,-1.99148 -5.52202,-3.06517 2e-5,1e-5 -0.0638,-0.04 -0.0638,-0.04 l 1.22702,-9.13667 c 0.0251,0.003 0.0501,0.007 0.0751,0.0102 0.28921,0.0388 0.57829,0.079 0.86724,0.12044 1.83297,1.92906 3.82058,3.56293 6.01171,4.94224 2.19426,1.38129 4.32999,2.38738 6.51635,3.02466 0.55228,0.16098 1.286,0.31628 2.21599,0.48159 0.94575,0.17046 1.73089,0.23096 2.36404,0.17006 0.76329,-0.053 1.46432,-0.23931 2.10578,-0.56343 0.64658,-0.34009 1.12422,-0.91442 1.42179,-1.72991 0.33319,-0.9131 0.21742,-1.79853 -0.37302,-2.65186 -0.58957,-0.85207 -1.40306,-1.59904 -2.43736,-2.22505 -1.28705,-0.78029 -2.70411,-1.5554 -4.24884,-2.30701 -1.52746,-0.74715 -2.9547,-1.49896 -4.28679,-2.2697 -3.06754,-1.79456 -5.25306,-3.604991 -6.48298,-5.610891 -1.22583,-1.999264 -1.72311,-4.328654 -1.35828,-6.992556 0.49033,-3.580221 2.81948,-6.276766 7.30803,-7.720501 4.46303,-1.45154 9.91616,-1.373843 15.90004,0.506303 2.99914,0.942335 5.85819,2.200848 8.5393,3.751564 0.68166,0.393229 1.33545,0.793916 1.9613,1.200759 1.84838,1.20417 3.4537,2.457888 4.81925,3.735293 l -3.66699,8.055996 c -0.32239,-0.146788 -0.64542,-0.292442 -0.9691,-0.436947 -0.80762,-1.328381 -1.87401,-2.648011 -3.20884,-3.937438 -0.52651,-0.507765 -1.09494,-1.010694 -1.70557,-1.506875 -2.14251,-1.749629 -4.58962,-3.076071 -7.28022,-3.936597 -1.04551,-0.334379 -2.0086,-0.56402 -2.88094,-0.694482 -0.87259,-0.130503 -1.82123,-0.156415 -2.8384,-0.07276 -0.82667,0.06341 -1.58988,0.295324 -2.28425,0.691991 -0.66897,0.385476 -1.07992,0.910651 -1.24254,1.567592 -0.23783,0.960816 -0.005,1.830008 0.67362,2.614391 0.71112,0.781239 2.17667,1.693124 4.3863,2.854841 1.42513,0.740476 2.77463,1.481783 4.04678,2.213297 1.29286,0.738852 2.62266,1.6282 3.97217,2.6712 0.69283,0.54132 1.31639,1.09002 1.8712,1.64226 0,0 0,1e-5 0,1e-5 1.5589,1.55229 2.579,3.13362 3.08986,4.69591 0.72091,2.11911 0.45944,4.38606 -0.68775,6.82042 -1.64612,3.49313 -4.45417,5.55789 -8.19045,6.51849 -0.56169,0.14607 -1.13224,0.26285 -1.71216,0.35128 -3.27971,0.50309 -6.80163,0.0796 -10.84675,-1.09914 z"
           id="path1266-4"
           inkscape:original-d="m 235.73103,179.37829 q -4.45312,0 -7.83854,-0.85937 -3.35937,-0.85938 -6.24999,-2.13542 v -9.21874 h 0.88541 q 2.91667,2.47395 6.43229,3.80208 3.51562,1.32812 6.82291,1.32812 0.83334,0 2.1875,-0.18229 1.38021,-0.18229 2.21354,-0.57292 1.01563,-0.4427 1.71875,-1.22395 0.70312,-0.8073 0.70312,-2.10938 0,-1.45833 -1.14583,-2.36979 -1.14583,-0.91146 -2.73437,-1.32812 -1.97917,-0.52084 -4.24479,-0.98958 -2.23958,-0.46875 -4.19271,-1.14584 -4.5052,-1.58854 -6.45833,-4.27083 -1.95312,-2.68229 -1.95312,-6.71874 0,-5.44271 4.60937,-8.80208 4.60937,-3.38542 11.51041,-3.38542 3.46354,0 6.875,0.70313 3.4375,0.70312 6.14583,1.90104 v 8.85416 h -0.85938 q -2.16145,-1.84896 -5.28645,-3.125 -3.09896,-1.27604 -6.38021,-1.27604 -1.27604,0 -2.29166,0.18229 -1.01563,0.18229 -2.13542,0.70313 -0.91145,0.41666 -1.58854,1.25 -0.65104,0.80729 -0.65104,1.82291 0,1.48438 1.04167,2.36979 1.0677,0.85938 4.08854,1.5625 1.95312,0.44271 3.74999,0.85938 1.82292,0.41666 3.88021,1.14583 4.03646,1.45833 5.98958,3.93229 1.97917,2.44791 1.97917,6.48437 0,5.78124 -4.55729,9.29687 -4.53125,3.51562 -12.26562,3.51562 z"
           style="fill:#ffffff;fill-opacity:1" /><path
           d="m 255.11721,127.48943 17.9529,-34.365274 c 5.53967,2.88738 10.85634,6.056055 15.94781,9.437594 4.26751,2.84554 8.401,5.81643 12.41223,8.88965 l -4.49477,5.86255 c -3.88525,-2.97745 -7.88052,-5.84635 -11.99758,-8.58365 -1.56639,-1.03881 -3.15264,-2.056 -4.75868,-3.04933 l -3.57546,5.7829 c 1.5451,0.95545 3.07328,1.93467 4.58446,2.93541 3.54667,2.35136 7.00551,4.81183 10.38484,7.36509 l -4.45329,5.89397 c -3.26466,-2.46669 -6.59911,-4.83563 -10.01166,-7.09051 -1.45112,-0.95933 -2.9161,-1.89722 -4.39488,-2.81146 l -5.15085,8.33092 c 1.39098,0.85967 2.7723,1.74286 4.1439,2.64735 3.62912,2.38631 7.17615,4.92443 10.65283,7.59131 l -4.49477,5.86256 c -3.3507,-2.57112 -6.75951,-5.00725 -10.23818,-7.28533 -4.10558,-2.70174 -8.27593,-5.1958 -12.50885,-7.41375 z"
           id="path1268-2"
           inkscape:original-d="m 257.52789,178.67517 v -38.77602 h 26.22394 v 7.39583 h -16.53645 v 6.79687 h 15.23437 v 7.39583 h -15.23437 v 9.79166 h 16.53645 v 7.39583 z"
           style="fill:#ffffff;fill-opacity:1" /><path
           d="m 324.86741,159.22984 c -2.61763,2.48845 -5.59483,4.05318 -8.90878,4.74409 -3.30229,0.67905 -6.44066,0.59246 -9.42455,-0.24031 -2.50992,-0.67601 -4.82737,-1.78648 -6.97249,-3.3311 -2.12155,-1.54546 -4.23795,-3.30152 -6.37914,-5.26779 -3.23681,-2.97238 -6.51438,-5.84332 -9.84488,-8.58894 l 24.59675,-29.93896 c 3.89401,3.18985 7.67138,6.46998 11.34399,9.8171 2.49497,2.27385 4.66865,4.56456 6.52468,6.84017 1.85761,2.27754 3.19912,4.79618 4.02317,7.52987 1.01345,3.34473 1.10249,6.62043 0.3097,9.80788 -0.78091,3.17802 -2.55103,6.04468 -5.26845,8.62799 z m -8.06095,-8.38066 c 1.80505,-1.80887 2.98063,-3.717 3.50775,-5.74021 0.55342,-2.01911 0.411,-4.16311 -0.45278,-6.41949 -0.63364,-1.62418 -1.57298,-3.06899 -2.81219,-4.32223 -1.21858,-1.23354 -2.74175,-2.68648 -4.55353,-4.31136 -0.0548,-0.0492 -0.10969,-0.0983 -0.16456,-0.14747 l -16.21623,18.06888 c 0.0503,0.0452 0.10049,0.0904 0.15072,0.1357 1.83085,1.64955 3.31437,2.98218 4.60188,4.09531 1.29051,1.09385 2.77357,1.86274 4.46296,2.3126 1.99454,0.52789 3.9516,0.50516 5.87646,-0.0842 1.92337,-0.58893 3.79525,-1.77941 5.59952,-3.5875 z"
           id="path1270-2"
           inkscape:original-d="m 324.97577,159.32622 q 0,5.41666 -2.36979,9.71354 -2.36979,4.27083 -5.98958,6.56249 -3.02084,1.95313 -6.58854,2.52604 -3.54167,0.54688 -7.55208,0.54688 h -12.13541 v -38.77602 h 12.03124 q 4.08854,0 7.65625,0.52083 3.5677,0.52083 6.6927,2.52604 3.82813,2.44792 6.04167,6.61458 2.21354,4.14062 2.21354,9.76562 z m -10,-0.0781 q 0,-3.82812 -1.32812,-6.53645 -1.30208,-2.73437 -4.03646,-4.27083 -1.97916,-1.09375 -4.16666,-1.19792 -2.16146,-0.10416 -5.18229,-0.10416 h -0.18229 v 24.27082 h 0.18229 q 3.28125,0 5.52083,-0.10417 2.26562,-0.13021 4.29687,-1.40625 2.39583,-1.51042 3.64583,-4.16666 1.25,-2.65625 1.25,-6.48438 z"
           style="fill:#ffffff;fill-opacity:1" /></g></g></g></svg>
